<svg xmlns="http://www.w3.org/2000/svg" enable-background="new 0 0 50 50" viewBox="0 0 50 50" id="Networking">
  <path d="M38.6,22.7c-0.6,0-1.1-0.5-1.1-1.1s0.5-1.1,1.1-1.1h10c-0.7-3.9-2.5-7.5-4.9-10.5l-0.8,6.8c-0.1,0.6-0.5,1-1.1,1
		c0,0-0.1,0-0.1,0c-0.6-0.1-1-0.6-1-1.2l1.1-8.6c-3.4-3.3-7.7-5.6-12.5-6.5L32,6.9c0.3,0.5,0.1,1.2-0.5,1.5
		c-0.2,0.1-0.3,0.1-0.5,0.1c-0.4,0-0.8-0.2-1-0.6l-3.5-6.9C26.1,1,25.5,1,25,1c-5,0-9.6,1.5-13.5,4.2h8.9c0.4,0,0.8,0.3,1,0.6
		l4.3,9.4h5.1c0.5-1.7,2-3,3.9-3c2.3,0,4.1,1.8,4.1,4.1s-1.8,4.1-4.1,4.1c-1.9,0-3.4-1.3-3.9-3h-4.7v2l6.6,5.7
		c0.5,0.4,0.5,1.1,0.1,1.5c-0.2,0.3-0.5,0.4-0.8,0.4c-0.3,0-0.5-0.1-0.7-0.3l-5.2-4.5v0.1c0,0.6-0.5,1.1-1.1,1.1
		c-0.6,0-1.1-0.5-1.1-1.1v-5.8l-1.6-3.4l-3.1,5.5c-0.2,0.4-0.6,0.6-0.9,0.6c-0.2,0-0.4,0-0.5-0.1c-0.5-0.3-0.7-1-0.4-1.5l3.9-6.9
		l-1.5-3.3h-11c-0.9,0.9-1.8,1.8-2.6,2.8h6.9c0.6,0,1.1,0.5,1.1,1.1v2.8c0,0.6-0.5,1.1-1.1,1.1c-0.6,0-1.1-0.5-1.1-1.1v-1.7H4.6
		c-1.9,3-3.1,6.5-3.5,10.2l5.7-5.3c0.4-0.4,1.1-0.4,1.5,0.1c0.4,0.4,0.4,1.1-0.1,1.5l-7.1,6.5c-0.1,0.1-0.1,0.1-0.2,0.1
		c0.1,2.6,0.5,5,1.3,7.3h1.5V29c0-0.6,0.5-1.1,1.1-1.1S6,28.4,6,29v3.9h2.3c0.6,0,1.1,0.5,1.1,1.1S8.9,35,8.3,35H3.2
		c1.9,4.2,5,7.7,8.8,10.1V28.5c-1.7-0.5-3-2-3-3.9c0-2.3,1.8-4.1,4.1-4.1s4.1,1.8,4.1,4.1c0,1.9-1.3,3.4-3,3.9v3.6h3v-4.6
		c0-0.6,0.5-1.1,1.1-1.1c0.6,0,1.1,0.5,1.1,1.1v4.6h2c0.6,0,1.1,0.5,1.1,1.1s-0.5,1.1-1.1,1.1h-7.2v12.1c3.1,1.6,6.7,2.5,10.4,2.6
		l-5.5-8.9c-0.3-0.5-0.2-1.2,0.4-1.5c0.5-0.3,1.2-0.2,1.5,0.4l6.2,10c4.7-0.4,9-2.2,12.5-4.9H29c-0.6,0-1.1-0.5-1.1-1.1v-4.9
		c-1.7-0.5-3-2-3-3.9c0-2.3,1.8-4.1,4.1-4.1c2.3,0,4.1,1.8,4.1,4.1c0,1.9-1.3,3.4-3,3.9v3.8h12c1.2-1.2,2.3-2.6,3.3-4.1h-6.7
		c-0.6,0-1.1-0.5-1.1-1.1v-9.1c0-0.6,0.5-1.1,1.1-1.1c0.6,0,1.1,0.5,1.1,1.1v8h6.8c0.8-1.7,1.5-3.6,1.9-5.5h-4.7
		c-0.6,0-1.1-0.5-1.1-1.1c0-0.6,0.5-1.1,1.1-1.1h5C48.9,26.9,49,26,49,25c0-0.8,0-1.6-0.1-2.3H38.6z" fill="#34a853" class="color000000 svgShape"></path>
  <circle cx="29" cy="34.2" r="1.9" fill="#34a853" class="color000000 svgShape"></circle>
  <circle cx="34.7" cy="16.3" r="1.9" fill="#34a853" class="color000000 svgShape"></circle>
  <circle cx="13.1" cy="24.6" r="1.9" fill="#34a853" class="color000000 svgShape"></circle>
</svg>
